<svg width="250" height="175" viewBox="0 0 250 175" fill="none" xmlns="http://www.w3.org/2000/svg">
<rect x="48" y="15" width="155" height="106" fill="#2F3437"/>
<rect x="48" y="19" width="35" height="102" fill="#373C3F"/>
<rect x="48" y="26" width="35" height="10" fill="#474C50"/>
<rect x="48" y="38" width="35" height="10" fill="#474C50"/>
<rect x="48" y="50" width="35" height="10" fill="#474C50"/>
<path d="M116.168 79V59.0938H121.787C123.519 59.0938 125.05 59.4766 126.381 60.2422C127.712 61.0078 128.737 62.097 129.457 63.5098C130.186 64.9225 130.555 66.5449 130.564 68.377V69.6484C130.564 71.526 130.2 73.1712 129.471 74.584C128.751 75.9967 127.716 77.0814 126.367 77.8379C125.027 78.5944 123.464 78.9818 121.678 79H116.168ZM118.793 61.2539V76.8535H121.555C123.578 76.8535 125.15 76.2246 126.271 74.9668C127.402 73.709 127.967 71.918 127.967 69.5938V68.4316C127.967 66.1712 127.434 64.4167 126.367 63.168C125.31 61.9102 123.806 61.2721 121.855 61.2539H118.793ZM143.279 79C143.133 78.7083 143.015 78.1888 142.924 77.4414C141.748 78.6628 140.344 79.2734 138.713 79.2734C137.255 79.2734 136.056 78.8633 135.117 78.043C134.188 77.2135 133.723 76.1654 133.723 74.8984C133.723 73.3581 134.306 72.1641 135.473 71.3164C136.648 70.4596 138.298 70.0312 140.422 70.0312H142.883V68.8691C142.883 67.985 142.618 67.2832 142.09 66.7637C141.561 66.235 140.782 65.9707 139.752 65.9707C138.85 65.9707 138.093 66.1986 137.482 66.6543C136.872 67.11 136.566 67.6615 136.566 68.3086H134.023C134.023 67.5703 134.283 66.8594 134.803 66.1758C135.331 65.4831 136.042 64.9362 136.936 64.5352C137.838 64.1341 138.827 63.9336 139.902 63.9336C141.607 63.9336 142.942 64.362 143.908 65.2188C144.874 66.0664 145.376 67.2376 145.412 68.7324V75.541C145.412 76.8991 145.585 77.9792 145.932 78.7812V79H143.279ZM139.082 77.0723C139.875 77.0723 140.627 76.8672 141.338 76.457C142.049 76.0469 142.564 75.5137 142.883 74.8574V71.8223H140.9C137.801 71.8223 136.252 72.7292 136.252 74.543C136.252 75.3359 136.516 75.9557 137.045 76.4023C137.574 76.849 138.253 77.0723 139.082 77.0723ZM156.527 66.4766C156.145 66.4128 155.73 66.3809 155.283 66.3809C153.624 66.3809 152.499 67.0872 151.906 68.5V79H149.377V64.207H151.838L151.879 65.916C152.708 64.5944 153.884 63.9336 155.406 63.9336C155.898 63.9336 156.272 63.9974 156.527 64.125V66.4766ZM162.994 72.1504L161.408 73.8047V79H158.879V58H161.408V70.7012L162.762 69.0742L167.369 64.207H170.445L164.689 70.3867L171.115 79H168.148L162.994 72.1504Z" fill="white"/>
<path d="M202.746 8.54492H48.2539C42.5999 8.54492 38 13.1448 38 18.7988V120.654C38 126.308 42.5999 130.908 48.2539 130.908H98.498V156.201H70.8125C67.9811 156.201 65.6855 158.497 65.6855 161.328C65.6855 164.16 67.9811 166.455 70.8125 166.455H180.188C183.019 166.455 185.314 164.16 185.314 161.328C185.314 158.497 183.019 156.201 180.188 156.201H152.502V130.908H202.746C208.4 130.908 213 126.308 213 120.654V18.7988C213 13.1448 208.4 8.54492 202.746 8.54492ZM142.248 156.201H108.752V130.908H142.248V156.201ZM202.746 120.654C198.249 120.654 51.8578 120.654 48.2539 120.654V18.7988H202.746C202.753 122.866 202.78 120.654 202.746 120.654Z" fill="black"/>
</svg>
