<svg width="250" height="175" viewBox="0 0 250 175" fill="none" xmlns="http://www.w3.org/2000/svg">
<rect x="48" y="16" width="155" height="105" fill="#282A36"/>
<rect x="48" y="19" width="35" height="102" fill="#44475A"/>
<rect x="48" y="26" width="35" height="10" fill="#6272A4"/>
<rect x="48" y="38" width="35" height="10" fill="#6272A4"/>
<rect x="48" y="50" width="35" height="10" fill="#6272A4"/>
<path d="M97.4648 79V59.0938H103.084C104.816 59.0938 106.347 59.4766 107.678 60.2422C109.008 61.0078 110.034 62.097 110.754 63.5098C111.483 64.9225 111.852 66.5449 111.861 68.377V69.6484C111.861 71.526 111.497 73.1712 110.768 74.584C110.048 75.9967 109.013 77.0814 107.664 77.8379C106.324 78.5944 104.761 78.9818 102.975 79H97.4648ZM100.09 61.2539V76.8535H102.852C104.875 76.8535 106.447 76.2246 107.568 74.9668C108.699 73.709 109.264 71.918 109.264 69.5938V68.4316C109.264 66.1712 108.73 64.4167 107.664 63.168C106.607 61.9102 105.103 61.2721 103.152 61.2539H100.09ZM122.594 66.4766C122.211 66.4128 121.796 66.3809 121.35 66.3809C119.691 66.3809 118.565 67.0872 117.973 68.5V79H115.443V64.207H117.904L117.945 65.916C118.775 64.5944 119.951 63.9336 121.473 63.9336C121.965 63.9336 122.339 63.9974 122.594 64.125V66.4766ZM133.518 79C133.372 78.7083 133.253 78.1888 133.162 77.4414C131.986 78.6628 130.583 79.2734 128.951 79.2734C127.493 79.2734 126.294 78.8633 125.355 78.043C124.426 77.2135 123.961 76.1654 123.961 74.8984C123.961 73.3581 124.544 72.1641 125.711 71.3164C126.887 70.4596 128.536 70.0312 130.66 70.0312H133.121V68.8691C133.121 67.985 132.857 67.2832 132.328 66.7637C131.799 66.235 131.02 65.9707 129.99 65.9707C129.088 65.9707 128.331 66.1986 127.721 66.6543C127.11 67.11 126.805 67.6615 126.805 68.3086H124.262C124.262 67.5703 124.521 66.8594 125.041 66.1758C125.57 65.4831 126.281 64.9362 127.174 64.5352C128.076 64.1341 129.065 63.9336 130.141 63.9336C131.845 63.9336 133.18 64.362 134.146 65.2188C135.113 66.0664 135.614 67.2376 135.65 68.7324V75.541C135.65 76.8991 135.824 77.9792 136.17 78.7812V79H133.518ZM129.32 77.0723C130.113 77.0723 130.865 76.8672 131.576 76.457C132.287 76.0469 132.802 75.5137 133.121 74.8574V71.8223H131.139C128.04 71.8223 126.49 72.7292 126.49 74.543C126.49 75.3359 126.755 75.9557 127.283 76.4023C127.812 76.849 128.491 77.0723 129.32 77.0723ZM145.549 77.209C146.451 77.209 147.24 76.9355 147.914 76.3887C148.589 75.8418 148.962 75.1582 149.035 74.3379H151.428C151.382 75.1855 151.09 75.9922 150.553 76.7578C150.015 77.5234 149.295 78.1341 148.393 78.5898C147.499 79.0456 146.551 79.2734 145.549 79.2734C143.535 79.2734 141.93 78.6035 140.736 77.2637C139.551 75.9147 138.959 74.0736 138.959 71.7402V71.3164C138.959 69.8763 139.223 68.5957 139.752 67.4746C140.281 66.3535 141.037 65.4831 142.021 64.8633C143.015 64.2435 144.186 63.9336 145.535 63.9336C147.194 63.9336 148.57 64.4303 149.664 65.4238C150.767 66.4173 151.355 67.707 151.428 69.293H149.035C148.962 68.3359 148.598 67.5521 147.941 66.9414C147.294 66.3216 146.492 66.0117 145.535 66.0117C144.25 66.0117 143.252 66.4766 142.541 67.4062C141.839 68.3268 141.488 69.6621 141.488 71.4121V71.8906C141.488 73.5951 141.839 74.9076 142.541 75.8281C143.243 76.7487 144.245 77.209 145.549 77.209ZM163.404 77.5371C162.42 78.6947 160.975 79.2734 159.07 79.2734C157.493 79.2734 156.29 78.8177 155.461 77.9062C154.641 76.9857 154.226 75.6276 154.217 73.832V64.207H156.746V73.7637C156.746 76.0059 157.658 77.127 159.48 77.127C161.413 77.127 162.698 76.4069 163.336 74.9668V64.207H165.865V79H163.459L163.404 77.5371ZM172.469 79H169.939V58H172.469V79ZM185.662 79C185.516 78.7083 185.398 78.1888 185.307 77.4414C184.131 78.6628 182.727 79.2734 181.096 79.2734C179.637 79.2734 178.439 78.8633 177.5 78.043C176.57 77.2135 176.105 76.1654 176.105 74.8984C176.105 73.3581 176.689 72.1641 177.855 71.3164C179.031 70.4596 180.681 70.0312 182.805 70.0312H185.266V68.8691C185.266 67.985 185.001 67.2832 184.473 66.7637C183.944 66.235 183.165 65.9707 182.135 65.9707C181.232 65.9707 180.476 66.1986 179.865 66.6543C179.255 67.11 178.949 67.6615 178.949 68.3086H176.406C176.406 67.5703 176.666 66.8594 177.186 66.1758C177.714 65.4831 178.425 64.9362 179.318 64.5352C180.221 64.1341 181.21 63.9336 182.285 63.9336C183.99 63.9336 185.325 64.362 186.291 65.2188C187.257 66.0664 187.758 67.2376 187.795 68.7324V75.541C187.795 76.8991 187.968 77.9792 188.314 78.7812V79H185.662ZM181.465 77.0723C182.258 77.0723 183.01 76.8672 183.721 76.457C184.432 76.0469 184.947 75.5137 185.266 74.8574V71.8223H183.283C180.184 71.8223 178.635 72.7292 178.635 74.543C178.635 75.3359 178.899 75.9557 179.428 76.4023C179.956 76.849 180.635 77.0723 181.465 77.0723Z" fill="#F8F8F2"/>
<path d="M202.746 8.54492H48.2539C42.5999 8.54492 38 13.1448 38 18.7988V120.654C38 126.308 42.5999 130.908 48.2539 130.908H98.498V156.201H70.8125C67.9811 156.201 65.6855 158.497 65.6855 161.328C65.6855 164.16 67.9811 166.455 70.8125 166.455H180.188C183.019 166.455 185.314 164.16 185.314 161.328C185.314 158.497 183.019 156.201 180.188 156.201H152.502V130.908H202.746C208.4 130.908 213 126.308 213 120.654V18.7988C213 13.1448 208.4 8.54492 202.746 8.54492ZM142.248 156.201H108.752V130.908H142.248V156.201ZM202.746 120.654C198.249 120.654 51.8578 120.654 48.2539 120.654V18.7988H202.746C202.753 122.866 202.78 120.654 202.746 120.654Z" fill="black"/>
</svg>
