<svg width="250" height="175" viewBox="0 0 250 175" fill="none" xmlns="http://www.w3.org/2000/svg">
<rect x="48" y="16" width="155" height="105" fill="white"/>
<rect x="48" y="19" width="35" height="102" fill="#C4C4C4"/>
<rect x="48" y="26" width="35" height="10" fill="#BBBBBB"/>
<rect x="48" y="38" width="35" height="10" fill="#BBBBBB"/>
<rect x="48" y="50" width="35" height="10" fill="#BBBBBB"/>
<path d="M116.359 76.8535H125.793V79H113.721V59.0938H116.359V76.8535ZM131.139 79H128.609V64.207H131.139V79ZM128.404 60.2832C128.404 59.873 128.527 59.5267 128.773 59.2441C129.029 58.9616 129.402 58.8203 129.895 58.8203C130.387 58.8203 130.76 58.9616 131.016 59.2441C131.271 59.5267 131.398 59.873 131.398 60.2832C131.398 60.6934 131.271 61.0352 131.016 61.3086C130.76 61.582 130.387 61.7188 129.895 61.7188C129.402 61.7188 129.029 61.582 128.773 61.3086C128.527 61.0352 128.404 60.6934 128.404 60.2832ZM134.598 71.4805C134.598 69.1745 135.131 67.3424 136.197 65.9844C137.264 64.6172 138.676 63.9336 140.436 63.9336C142.24 63.9336 143.648 64.5716 144.66 65.8477L144.783 64.207H147.094V78.6445C147.094 80.5586 146.524 82.0671 145.385 83.1699C144.255 84.2728 142.732 84.8242 140.818 84.8242C139.752 84.8242 138.708 84.5964 137.688 84.1406C136.667 83.6849 135.887 83.0605 135.35 82.2676L136.662 80.75C137.747 82.0898 139.073 82.7598 140.641 82.7598C141.871 82.7598 142.828 82.4134 143.512 81.7207C144.204 81.028 144.551 80.0527 144.551 78.7949V77.5234C143.539 78.6901 142.158 79.2734 140.408 79.2734C138.676 79.2734 137.273 78.5762 136.197 77.1816C135.131 75.7871 134.598 73.8867 134.598 71.4805ZM137.141 71.7676C137.141 73.4355 137.482 74.748 138.166 75.7051C138.85 76.653 139.807 77.127 141.037 77.127C142.632 77.127 143.803 76.4023 144.551 74.9531V68.1992C143.776 66.7865 142.614 66.0801 141.064 66.0801C139.834 66.0801 138.872 66.5586 138.18 67.5156C137.487 68.4727 137.141 69.89 137.141 71.7676ZM153.451 65.998C154.572 64.6217 156.031 63.9336 157.826 63.9336C160.952 63.9336 162.529 65.6973 162.557 69.2246V79H160.027V69.2109C160.018 68.1445 159.772 67.3561 159.289 66.8457C158.815 66.3353 158.072 66.0801 157.061 66.0801C156.24 66.0801 155.52 66.2988 154.9 66.7363C154.281 67.1738 153.798 67.748 153.451 68.459V79H150.922V58H153.451V65.998ZM169.775 60.625V64.207H172.537V66.1621H169.775V75.3359C169.775 75.9284 169.898 76.375 170.145 76.6758C170.391 76.9674 170.81 77.1133 171.402 77.1133C171.694 77.1133 172.095 77.0586 172.605 76.9492V79C171.94 79.1823 171.293 79.2734 170.664 79.2734C169.534 79.2734 168.682 78.9316 168.107 78.248C167.533 77.5645 167.246 76.5938 167.246 75.3359V66.1621H164.553V64.207H167.246V60.625H169.775Z" fill="black"/>
<path d="M202.746 8.54492H48.2539C42.5999 8.54492 38 13.1448 38 18.7988V120.654C38 126.308 42.5999 130.908 48.2539 130.908H98.498V156.201H70.8125C67.9811 156.201 65.6855 158.497 65.6855 161.328C65.6855 164.16 67.9811 166.455 70.8125 166.455H180.188C183.019 166.455 185.314 164.16 185.314 161.328C185.314 158.497 183.019 156.201 180.188 156.201H152.502V130.908H202.746C208.4 130.908 213 126.308 213 120.654V18.7988C213 13.1448 208.4 8.54492 202.746 8.54492ZM142.248 156.201H108.752V130.908H142.248V156.201ZM202.746 120.654C198.249 120.654 51.8578 120.654 48.2539 120.654V18.7988H202.746C202.753 122.866 202.78 120.654 202.746 120.654Z" fill="black"/>
</svg>
