<svg width="250" height="175" viewBox="0 0 250 175" fill="none" xmlns="http://www.w3.org/2000/svg">
<rect x="48" y="14" width="155" height="107" fill="white"/>
<path d="M114.678 79H112.039L102.018 63.6602V79H99.3789V59.0938H102.018L112.066 74.502V59.0938H114.678V79ZM125.082 79.2734C123.077 79.2734 121.445 78.6172 120.188 77.3047C118.93 75.9831 118.301 74.2194 118.301 72.0137V71.5488C118.301 70.0814 118.579 68.7734 119.135 67.625C119.7 66.4674 120.484 65.5651 121.486 64.918C122.498 64.2617 123.592 63.9336 124.768 63.9336C126.691 63.9336 128.186 64.5671 129.252 65.834C130.318 67.1009 130.852 68.9147 130.852 71.2754V72.3281H120.83C120.867 73.7865 121.29 74.9668 122.102 75.8691C122.922 76.7624 123.961 77.209 125.219 77.209C126.112 77.209 126.868 77.0267 127.488 76.6621C128.108 76.2975 128.65 75.8145 129.115 75.2129L130.66 76.416C129.421 78.321 127.561 79.2734 125.082 79.2734ZM124.768 66.0117C123.747 66.0117 122.89 66.3854 122.197 67.1328C121.505 67.8711 121.076 68.9102 120.912 70.25H128.322V70.0586C128.249 68.7734 127.903 67.7799 127.283 67.0781C126.663 66.3672 125.825 66.0117 124.768 66.0117ZM146.889 75.5137L149.732 64.207H152.262L147.955 79H145.904L142.309 67.7891L138.809 79H136.758L132.465 64.207H134.98L137.893 75.2812L141.338 64.207H143.375L146.889 75.5137Z" fill="black"/>
<path d="M202.746 8.54492H48.2539C42.5999 8.54492 38 13.1448 38 18.7988V120.654C38 126.308 42.5999 130.908 48.2539 130.908H98.498V156.201H70.8125C67.9811 156.201 65.6855 158.497 65.6855 161.328C65.6855 164.16 67.9811 166.455 70.8125 166.455H180.188C183.019 166.455 185.314 164.16 185.314 161.328C185.314 158.497 183.019 156.201 180.188 156.201H152.502V130.908H202.746C208.4 130.908 213 126.308 213 120.654V18.7988C213 13.1448 208.4 8.54492 202.746 8.54492ZM142.248 156.201H108.752V130.908H142.248V156.201ZM202.746 120.654C198.249 120.654 51.8578 120.654 48.2539 120.654V18.7988H202.746C202.753 122.866 202.78 120.654 202.746 120.654Z" fill="black"/>
</svg>
